<svg version="1.1" id="Layer_1" xmlns="http://www.w3.org/2000/svg" xmlns:xlink="http://www.w3.org/1999/xlink" x="0px" y="0px"
	 width="100%" viewBox="0 0 992 496" enable-background="new 0 0 992 496" xml:space="preserve">
<path fill="#000000" opacity="1.000000" stroke="none" 
	d="
M531.805115,272.964539 
	C528.872681,274.241058 526.308716,275.459595 523.644775,276.392609 
	C518.212585,278.295135 515.845459,276.590515 515.718323,270.725311 
	C515.628052,266.561066 515.590759,262.389954 515.721558,258.227936 
	C515.948120,251.014969 515.799133,243.894150 511.898132,237.737961 
	C513.474792,235.032150 515.944885,235.427002 517.918945,234.967346 
	C543.809692,228.938522 554.606506,202.402298 540.243530,179.791855 
	C538.982056,177.806000 538.538940,175.951569 539.107361,173.681931 
	C540.054871,169.898697 539.832947,166.105774 538.986816,162.300934 
	C537.857361,157.222122 536.487793,156.214203 531.381287,157.394562 
	C527.100464,158.384018 523.373291,160.688324 519.693481,162.949844 
	C517.383484,164.369476 515.183289,164.685944 512.582397,164.092239 
	C502.206970,161.723862 491.789093,161.596237 481.390045,163.962067 
	C478.471100,164.626129 475.962860,164.227600 473.323883,162.622345 
	C469.362823,160.212860 465.326569,157.817627 460.554016,157.150208 
	C457.350250,156.702179 455.564148,157.775757 454.813110,161.052185 
	C453.862244,165.200317 453.846069,169.383224 454.496704,173.463791 
	C454.962708,176.386734 454.193359,178.481369 452.719177,180.861343 
	C439.619568,202.009735 449.777618,227.901947 473.594849,234.575745 
	C476.155365,235.293228 480.403809,234.477768 480.828217,237.637878 
	C481.289490,241.072372 479.213379,244.766968 477.100647,247.636230 
	C474.939941,250.570663 464.913422,250.386398 460.988464,247.838486 
	C457.864777,245.810730 455.614716,242.932938 453.406342,239.970444 
	C449.328003,234.499405 445.933167,232.978561 440.990906,234.044983 
	C440.479370,235.241135 441.215027,236.055115 442.069794,236.514603 
	C446.629791,238.965851 449.025940,243.238663 450.977081,247.633270 
	C454.139587,254.756271 459.386444,258.048828 467.073273,257.811554 
	C470.216370,257.714539 473.364990,257.795502 476.686615,257.795502 
	C477.950287,262.349457 478.566620,266.737213 478.169342,271.217529 
	C477.694641,276.571503 475.047546,278.389038 470.036469,276.490906 
	C445.751617,267.292175 429.146362,250.343124 421.481323,225.612244 
	C412.726227,197.364151 417.941528,171.056625 437.911316,149.292633 
	C460.412079,124.770241 488.927795,117.113884 520.810303,126.969917 
	C549.539368,135.851089 567.654114,155.941284 573.879028,185.383209 
	C581.577637,221.795456 565.200317,255.072784 531.805115,272.964539 
z"/>
<path fill="#000000" opacity="1.000000" stroke="none" 
	d="
M355.472656,297.818115 
	C356.998871,305.774292 355.573853,307.307831 348.043732,306.440277 
	C337.659454,305.243896 333.341736,308.888336 333.078247,319.221344 
	C333.006409,322.039948 333.011963,324.904419 333.424866,327.682007 
	C334.197388,332.879028 337.628571,335.714111 342.599854,335.714722 
	C344.690247,335.714996 346.779968,335.676453 346.943359,332.863800 
	C347.086700,330.396240 347.609192,327.721619 343.878174,327.209045 
	C339.196106,326.565796 340.838654,322.847321 340.726990,320.130676 
	C340.601318,317.074127 342.891693,316.799561 345.180267,316.798676 
	C360.674255,316.792542 358.940308,314.945557 359.018219,329.473206 
	C359.027130,331.136475 359.020569,332.799927 359.013824,334.463226 
	C358.977264,343.490356 357.391876,345.309265 348.381836,346.668152 
	C332.241699,349.102356 321.788971,340.649170 320.880402,324.395874 
	C320.778412,322.571655 320.797333,320.736084 320.851501,318.908447 
	C321.433197,299.278961 337.075500,289.533813 355.472656,297.818115 
z"/>
<path fill="#000000" opacity="1.000000" stroke="none" 
	d="
M415.358704,329.493652 
	C415.355865,333.768433 415.225647,337.600708 415.394104,341.419830 
	C415.585754,345.764343 412.955048,346.182953 409.595062,346.181580 
	C406.207214,346.180237 403.727356,345.651917 403.767334,341.370605 
	C403.890167,328.228638 403.844299,315.084991 403.851593,301.942017 
	C403.853180,299.096344 404.497406,296.798187 408.072998,297.458344 
	C411.008331,298.000275 415.786743,295.637360 415.366089,301.859253 
	C415.254120,303.515015 415.362366,305.185425 415.362640,306.849091 
	C415.363953,315.149078 416.124908,315.728088 424.625366,314.743134 
	C426.909607,314.478455 427.918274,313.501221 427.939056,311.303101 
	C427.968964,308.142670 428.107849,304.979370 428.017303,301.822540 
	C427.882050,297.107819 431.050446,297.163971 434.388428,297.019623 
	C438.036438,296.861877 439.414948,298.351257 439.378601,302.007080 
	C439.247955,315.148804 439.213898,328.293884 439.378326,341.434753 
	C439.428345,345.434723 437.427368,346.179779 434.122345,346.126709 
	C430.934723,346.075500 427.938690,346.075256 428.002808,341.641785 
	C428.058167,337.816223 428.015137,333.989197 428.016235,330.162842 
	C428.016937,327.704041 427.857422,324.966980 424.507477,325.497864 
	C421.296082,326.006744 416.353851,322.696686 415.358704,329.493652 
z"/>
<path fill="#000000" opacity="1.000000" stroke="none" 
	d="
M509.924866,321.761353 
	C510.450012,326.828491 510.773834,331.500275 509.815521,336.100189 
	C508.077209,344.444397 501.961243,348.368988 493.574829,346.552734 
	C490.392487,345.863525 487.502747,344.767853 483.967865,345.909271 
	C480.446594,347.046387 477.919708,345.361481 477.982422,340.981415 
	C478.170532,327.839020 478.252930,314.694641 478.280304,301.550812 
	C478.288483,297.628723 480.532593,296.957031 483.792633,296.977325 
	C487.031433,296.997528 489.983673,297.104706 490.040375,301.410339 
	C490.083740,304.706696 490.049011,308.004089 490.049011,311.974945 
	C498.753082,311.323975 507.524628,310.132935 509.924866,321.761353 
M498.750336,324.763916 
	C497.861053,321.105804 495.170349,320.788177 492.168610,321.375671 
	C489.010376,321.993896 489.401794,324.615234 489.356110,326.902374 
	C489.319855,328.719452 489.430481,330.541412 489.344452,332.355011 
	C489.211212,335.164917 490.331818,336.749481 493.274689,336.874054 
	C495.989441,336.988983 498.093842,336.521118 498.800751,333.292877 
	C499.376373,330.664276 499.968750,328.140533 498.750336,324.763916 
z"/>
<path fill="#000000" opacity="1.000000" stroke="none" 
	d="
M443.003601,324.045929 
	C443.007019,321.894531 443.106903,320.222717 443.001617,318.563904 
	C442.708862,313.952393 444.639496,311.885773 449.424530,311.974396 
	C454.169403,312.062317 455.373688,314.439392 455.189667,318.666504 
	C454.987091,323.321106 455.202850,327.992920 455.186310,332.657043 
	C455.176178,335.513763 456.385162,337.036804 459.388977,336.905975 
	C462.179260,336.784393 463.678741,335.594940 463.626709,332.591736 
	C463.537292,327.429077 463.839508,322.250580 463.545837,317.103333 
	C463.304169,312.868195 465.410065,312.037048 468.977661,312.052399 
	C472.663208,312.068237 474.455231,313.315399 474.354736,317.328033 
	C474.154572,325.319275 474.367462,333.319885 474.288300,341.315430 
	C474.246277,345.563446 472.214294,347.176178 468.248749,345.656311 
	C466.016144,344.800598 464.300201,344.863434 462.139313,345.593079 
	C450.338470,349.577698 443.107086,344.398010 443.002960,332.027924 
	C442.981934,329.529297 443.004181,327.030273 443.003601,324.045929 
z"/>
<path fill="#000000" opacity="1.000000" stroke="none" 
	d="
M590.780884,315.928772 
	C593.691040,313.062012 596.924927,311.910767 600.561829,312.031189 
	C605.041992,312.179504 609.517578,312.478424 613.993347,312.742767 
	C615.155762,312.811462 616.426270,312.891296 616.925171,314.194824 
	C617.411133,315.464630 616.919189,316.562286 615.695496,317.071075 
	C613.620605,317.933838 613.987427,319.465240 614.117188,321.211639 
	C615.006958,333.184875 612.113892,336.518921 600.323181,337.370667 
	C599.056824,337.462128 597.571167,337.129242 596.992310,338.889099 
	C597.243347,340.691864 598.705872,340.583893 599.998657,340.743652 
	C603.461670,341.171570 606.945557,341.477051 610.382263,342.060364 
	C614.407349,342.743530 617.701721,344.469818 618.280334,349.085968 
	C618.896240,353.998840 617.532532,358.050842 612.806458,360.304138 
	C606.353149,363.381012 599.553955,363.513306 592.901184,361.427094 
	C585.710754,359.172302 583.908752,351.560303 588.886047,345.849060 
	C592.279114,341.955688 592.194946,337.347931 590.276367,333.264343 
	C587.487732,327.329041 587.246277,321.857971 590.780884,315.928772 
M612.039124,353.467377 
	C613.188416,351.044617 613.126404,348.633331 610.393433,347.674408 
	C605.837463,346.075836 601.025818,345.498505 596.274719,346.795258 
	C593.705322,347.496521 592.076233,349.330933 592.125305,352.266388 
	C592.172180,355.071808 593.889282,356.538116 596.313416,357.066376 
	C601.801697,358.262390 607.122192,358.152802 612.039124,353.467377 
M598.394104,317.848724 
	C593.803162,320.195435 592.292297,323.948364 594.176208,328.325989 
	C595.584717,331.598816 600.080933,333.008026 604.473755,331.553497 
	C608.127563,330.343628 609.805298,326.507904 608.406738,322.124664 
	C606.917542,317.457092 603.113403,317.302826 598.394104,317.848724 
z"/>
<path fill="#000000" opacity="1.000000" stroke="none" 
	d="
M376.573242,318.084778 
	C376.601410,317.371490 376.495117,316.949524 376.658722,316.719543 
	C379.384308,312.887817 382.154327,309.354614 382.695221,304.149658 
	C382.949524,301.702576 387.373627,302.910065 389.936676,302.937653 
	C392.215088,302.962158 393.151154,304.667664 393.088654,306.678406 
	C392.985992,309.981323 393.850128,312.052124 397.670929,312.232849 
	C400.415283,312.362671 400.326172,314.729797 400.293304,316.777039 
	C400.258606,318.938446 400.571564,321.530365 397.502136,321.719269 
	C393.571960,321.961121 392.759125,324.276642 393.247009,327.461609 
	C393.803589,331.095337 390.925018,336.353149 397.678101,337.250305 
	C400.432129,337.616211 400.265869,339.800629 400.315094,341.839661 
	C400.368561,344.054565 399.790161,345.590118 397.355347,346.329865 
	C389.472992,348.724731 382.335938,343.949036 381.824493,335.743683 
	C381.710602,333.916595 381.775970,332.079041 381.715057,330.247772 
	C381.594666,326.625793 382.954224,322.334808 377.432678,321.141144 
	C376.971954,321.041534 376.845917,319.393860 376.573242,318.084778 
z"/>
<path fill="#000000" opacity="1.000000" stroke="none" 
	d="
M523.666626,333.977844 
	C523.670410,322.995819 523.782471,312.507568 523.621643,302.023499 
	C523.563599,298.238678 524.757019,296.467468 528.751038,296.679779 
	C534.054626,296.961731 539.397095,296.380981 544.649963,297.693298 
	C552.031433,299.537384 555.619263,304.572632 555.319519,312.869995 
	C555.065613,319.896027 550.507324,325.219879 543.560181,326.239075 
	C540.117615,326.744080 536.610229,326.888428 533.125916,327.001862 
	C530.442017,327.089233 529.178467,328.188507 529.235229,330.947021 
	C529.314087,334.773224 529.243958,338.603027 529.203491,342.430908 
	C529.184143,344.265015 528.617554,345.839355 526.457397,345.854797 
	C524.282776,345.870331 523.733582,344.315826 523.717651,342.462372 
	C523.694763,339.799377 523.683350,337.136322 523.666626,333.977844 
M541.748230,302.360565 
	C540.921326,302.318420 540.094177,302.234314 539.267639,302.240509 
	C527.813660,302.326019 529.261658,300.890259 529.274597,312.286346 
	C529.286499,322.749298 527.858704,321.651367 538.954773,321.654144 
	C545.050049,321.655670 548.645630,318.920135 549.529419,313.956482 
	C550.491760,308.551788 548.201477,304.773651 541.748230,302.360565 
z"/>
<path fill="#000000" opacity="1.000000" stroke="none" 
	d="
M625.994751,333.217163 
	C627.078674,339.890350 628.416687,341.034912 634.771606,340.973419 
	C637.098022,340.950928 639.422241,340.738098 641.748535,340.635651 
	C642.937195,340.583282 644.207275,340.577972 644.654053,341.972229 
	C645.147522,343.512238 644.215759,344.417084 642.995789,345.203949 
	C634.552368,350.650177 621.830872,345.586823 620.053833,335.781860 
	C619.200134,331.070923 619.137146,326.203766 620.495239,321.440887 
	C622.640625,313.917053 630.366394,310.079041 638.377441,312.660675 
	C644.117981,314.510590 648.453918,324.384644 646.122070,330.214142 
	C645.226807,332.452148 643.277161,332.161896 641.494507,332.269257 
	C636.390625,332.576630 631.228577,331.483246 625.994751,333.217163 
M627.636597,320.134155 
	C626.424194,321.921722 625.216553,323.710571 625.955566,326.255493 
	C629.661072,327.459900 633.473694,326.836029 637.236145,326.769958 
	C639.415466,326.731720 639.878967,325.188721 639.875671,323.314026 
	C639.866089,317.894806 634.336548,316.140289 627.636597,320.134155 
z"/>
<path fill="#000000" opacity="1.000000" stroke="none" 
	d="
M572.358032,317.528564 
	C569.266479,317.085876 566.667908,317.692657 564.048096,318.199615 
	C562.678162,318.464752 561.294861,318.404327 560.930603,316.620239 
	C560.609680,315.048279 561.497437,314.209778 562.799744,313.500366 
	C572.748047,308.081146 583.335632,314.138641 583.363953,325.307495 
	C583.380737,331.913483 583.367004,338.519531 583.367004,345.999695 
	C579.003723,343.853760 575.893005,345.517700 572.621887,346.310608 
	C565.549683,348.024902 559.332947,344.272736 558.104248,337.764587 
	C556.881714,331.289276 560.918762,326.625153 568.621277,325.588562 
	C569.774780,325.433319 570.956604,325.316589 572.055420,324.963989 
	C574.011963,324.336121 577.264404,326.016754 577.553162,322.319122 
	C577.805664,319.085999 575.301208,318.212341 572.358032,317.528564 
M577.356689,338.497925 
	C577.484253,336.514282 577.665161,334.532166 577.721008,332.546509 
	C577.759583,331.175781 577.575012,329.648132 575.876648,329.475037 
	C572.373718,329.118103 568.809692,329.093811 565.802307,331.283020 
	C563.948486,332.632507 563.096741,334.638580 563.650696,337.008759 
	C564.193787,339.332092 565.549255,340.779266 568.019104,341.172058 
	C571.279053,341.690582 574.291504,341.325653 577.356689,338.497925 
z"/>
<path fill="#000000" opacity="1.000000" stroke="none" 
	d="
M674.489136,335.723389 
	C674.094360,342.879822 671.910950,345.320801 665.409851,346.429932 
	C661.756409,347.053253 658.127014,347.236908 654.548828,346.130341 
	C652.803040,345.590424 650.766663,344.995941 651.206543,342.557587 
	C651.621704,340.255890 653.647339,340.765961 655.249451,340.769653 
	C657.906067,340.775726 660.565979,340.946838 663.218262,340.859192 
	C665.957031,340.768646 668.227356,339.622986 668.542908,336.643921 
	C668.885193,333.413025 666.504700,332.453949 663.854736,331.949280 
	C661.571533,331.514404 659.249023,331.194183 657.030151,330.533539 
	C653.392761,329.450470 650.927856,327.156067 650.674011,323.126129 
	C650.425415,319.178833 651.642273,315.850037 655.293823,313.887268 
	C660.111389,311.297791 665.224060,311.487183 670.342102,312.744568 
	C672.099121,313.176239 673.279175,314.390503 672.969604,316.403564 
	C672.650635,318.477509 670.957642,318.301697 669.481018,318.294769 
	C666.496460,318.280731 663.505493,318.049591 660.530090,318.187683 
	C658.298828,318.291229 656.759399,319.687347 656.576782,321.966644 
	C656.376343,324.468658 658.128784,325.393280 660.289551,325.805878 
	C663.219238,326.365295 666.205566,326.749298 669.050903,327.599335 
	C672.745483,328.703125 675.104187,331.046265 674.489136,335.723389 
z"/>
<path fill="#000000" opacity="1.000000" stroke="none" 
	d="
M372.559753,345.659485 
	C363.334839,346.569946 362.850647,346.175171 362.814301,337.734619 
	C362.784912,330.908936 362.960541,324.080200 362.809174,317.258057 
	C362.712524,312.902100 365.037933,311.984100 368.774628,311.930450 
	C372.740509,311.873535 374.510773,313.214905 374.382568,317.449097 
	C374.145844,325.266754 374.351654,333.097260 374.323029,340.922241 
	C374.317108,342.539185 374.636414,344.318909 372.559753,345.659485 
z"/>
<path fill="#000000" opacity="1.000000" stroke="none" 
	d="
M374.006836,307.785187 
	C372.008789,310.507935 369.706116,311.456085 366.817352,310.409271 
	C364.643280,309.621460 363.165894,308.109558 362.798676,305.752716 
	C362.381897,303.077728 363.073486,300.755615 365.449707,299.247101 
	C367.773682,297.771759 370.205017,297.672394 372.381165,299.514587 
	C374.915649,301.660126 375.968140,304.263214 374.006836,307.785187 
z"/>
</svg>